#!OML:ASF E:\emotionWalksFemale\Project 1\Capture day 1\Session 1\Female1.ASF
:FULLY-SPECIFIED
:DEGREES
2128
root 10.0842 15.4891 -4.48714 1.0309 1.01226 -0.122801
lowerback 7.62644 0.0494957 6.61797
upperback -1.56568 0.95587 4.16424
thorax -5.90764 0.318351 0.527175
lowerneck -4.60127 -5.67146 -5.533
upperneck 40.9665 -12.1943 11.1513
head 16.7746 -4.61272 4.17158
rclavicle -8.00108e-015 2.54444e-014
rhumerus -36.7612 -4.01532 -75.2289
rradius 29.0445
rwrist 22.7926
rhand -9.13122 -52.4244
rfingers 7.12502
rthumb 16.8201 -81.7159
lclavicle -8.00108e-015 2.54444e-014
lhumerus -35.9485 1.16197 89.7305
lradius 41.9182
lwrist -6.77101
lhand -5.83239 -35.6015
lfingers 7.12502
lthumb 19.9935 -6.61008
rfemur -3.98298 23.5424 31.5012
rtibia 21.2532
rfoot -26.6544 -34.0767
rtoes 3.18452
lfemur -29.5265 -2.08907 -20.4022
ltibia 65.5728
lfoot -14.3872 1.92801
ltoes -12.0891
2129
root 10.0808 15.482 -4.42908 1.02133 0.85418 -0.0848427
lowerback 7.71408 0.0226513 6.47984
upperback -1.57502 0.916377 4.17211
thorax -5.97068 0.302324 0.617264
lowerneck -4.64514 -5.60022 -5.39587
upperneck 41.0754 -12.0665 10.9878
head 16.7987 -4.55448 4.0957
rclavicle -5.8393e-015 -3.18055e-015
rhumerus -36.5867 -4.20126 -75.1879
rradius 28.6693
rwrist 23.4872
rhand -9.09633 -52.4678
rfingers 7.12502
rthumb 16.8537 -81.7564
lclavicle -5.8393e-015 -3.18055e-015
lhumerus -35.9928 1.645 89.4961
lradius 41.6376
lwrist -7.08772
lhand -5.41306 -34.7324
lfingers 7.12502
lthumb 20.3965 -5.78362
rfemur -3.82648 23.4024 31.6274
rtibia 21.4024
rfoot -25.8382 -33.9959
rtoes 4.7023
lfemur -29.8992 -2.53149 -20.4759
ltibia 64.6317
lfoot -14.8009 2.24925
ltoes -12.4622
2130
root 10.0783 15.4795 -4.36665 1.03897 0.740179 0.0283687
lowerback 7.7542 -0.0134242 6.27582
upperback -1.59807 0.852569 4.15372
thorax -6.02181 0.276393 0.719777
lowerneck -4.46373 -5.46695 -5.171
upperneck 41.1489 -11.8292 10.7697
head 16.717 -4.45219 3.99975
rclavicle -3.45388e-015 -3.65764e-014
rhumerus -36.6626 -4.02969 -75.3871
rradius 29.0658
rwrist 22.8024
rhand -8.81981 -52.3222
rfingers 7.12502
rthumb 17.1199 -81.5879
lclavicle -3.45388e-015 -3.65764e-014
lhumerus -35.9768 2.06269 89.1929
lradius 40.9658
lwrist -7.42588
lhand -5.01622 -34.5963
lfingers 7.12502
lthumb 20.7778 -5.68875
rfemur -3.70578 23.3752 31.6933
rtibia 21.6562
rfoot -24.8966 -34.0446
rtoes 5.69833
lfemur -30.1713 -3.03589 -20.6513
ltibia 63.5788
lfoot -15.2202 2.71084
ltoes -12.513
2131
root 10.0771 15.4814 -4.30425 1.11654 0.661842 0.144277
lowerback 7.70866 0.0188063 6.12106
upperback -1.61104 0.873977 4.10922
thorax -6.0093 0.291597 0.756404
lowerneck -4.65682 -5.53599 -5.15376
upperneck 41.1575 -11.9622 10.8106
head 16.7938 -4.49361 3.98934
rclavicle 3.03147e-015 3.02153e-014
rhumerus -36.8992 -3.93306 -75.54
rradius 29.6874
rwrist 21.7086
rhand -8.29271 -52.2601
rfingers 7.12502
rthumb 17.6272 -81.4811
lclavicle 3.03147e-015 3.02153e-014
lhumerus -35.778 2.19188 88.9366
lradius 40.1718
lwrist -7.69508
lhand -4.37775 -34.4752
lfingers 7.12502
lthumb 21.3912 -5.63604
rfemur -3.71401 23.1006 31.683
rtibia 21.8765
rfoot -23.5866 -33.9982
rtoes 5.5866
lfemur -30.5174 -3.59844 -20.8321
ltibia 62.4665
lfoot -15.6002 3.07321
ltoes -13.2171
2132
root 10.0745 15.4797 -4.24228 1.1485 0.563155 0.165614
lowerback 7.73933 0.0353778 6.03494
upperback -1.66125 0.894294 4.11457
thorax -6.08046 0.302703 0.808018
lowerneck -4.66557 -5.56916 -5.21958
upperneck 41.1897 -12.0146 10.821
head 16.8289 -4.52441 3.99933
rclavicle 1.13059e-014 -2.54444e-014
rhumerus -37.0469 -3.97305 -75.4882
rradius 29.6074
rwrist 21.6414
rhand -9.14289 -51.3724
rfingers 7.12502
rthumb 16.8089 -80.6648
lclavicle 1.13059e-014 -2.54444e-014
lhumerus -35.7842 2.54516 88.7058
lradius 39.7166
lwrist -8.07605
lhand -3.64887 -33.7789
lfingers 7.12502
lthumb 22.0911 -5.02083
rfemur -3.66841 22.7864 31.776
rtibia 22.0519
rfoot -22.6363 -33.6291
rtoes 6.24115
lfemur -30.8174 -4.08535 -20.8951
ltibia 61.34
lfoot -15.9955 3.37423
ltoes -14.6148
2133
root 10.0731 15.4751 -4.18314 1.18267 0.518929 0.0878573
lowerback 7.80215 -0.02178 6.05496
upperback -1.74231 0.83287 4.1301
thorax -6.20459 0.268698 0.822359
lowerneck -4.46462 -5.53216 -5.29731
upperneck 41.2029 -11.9923 10.9208
head 16.8001 -4.52577 4.06975
rclavicle -4.62174e-015 1.11319e-014
rhumerus -37.1396 -3.8718 -75.6389
rradius 29.533
rwrist 21.3326
rhand -10.3638 -50.6788
rfingers 7.12502
rthumb 15.6333 -80.0671
lclavicle -4.62174e-015 1.11319e-014
lhumerus -35.9561 3.03494 88.4125
lradius 39.2364
lwrist -8.81357
lhand -4.01199 -33.7167
lfingers 7.12502
lthumb 21.7424 -4.9178
rfemur -3.58367 22.6293 31.9854
rtibia 22.2151
rfoot -22.4067 -33.1644
rtoes 8.00298
lfemur -31.1037 -4.60954 -20.8506
ltibia 60.2014
lfoot -16.3524 3.83434
ltoes -16.1189
